<svg width="56" height="70" viewBox="0 0 56 70" fill="none" xmlns="http://www.w3.org/2000/svg">
<path fill-rule="evenodd" clip-rule="evenodd" d="M18.9524 52.2025C17.8528 50.9224 16.7131 49.7027 15.4926 48.3934C8.69409 41.1246 -0.474708 31.3064 0.0191355 19.6385C0.402147 10.4992 7.21067 4.5004 16.0273 1.76111C23.8332 -0.587038 32.1671 -0.587038 39.9734 1.76111C48.7899 4.50074 55.5985 10.4997 55.9816 19.6487C56.4655 31.3171 47.2967 41.1254 40.5082 48.4036C39.2776 49.7135 38.148 50.9232 37.0384 52.2126L36.1006 53.3025V53.3927H19.9615L18.9529 52.2325L18.9524 52.2025ZM30.2194 6.81005V45.3042C37.28 30.5867 44.654 14.7803 35.7874 7.60045V7.59979C33.9566 7.18239 32.0943 6.91869 30.2194 6.81003V6.81005ZM26.1239 45.5637V6.78969C24.2402 6.88245 22.368 7.13025 20.5258 7.52911C11.4479 14.7079 18.9624 30.7155 26.1239 45.5229V45.5637ZM43.5231 10.7485C46.62 19.4069 41.8386 31.3143 36.3208 43.0025C42.1916 36.7035 49.5649 28.425 49.212 19.906C49.0509 15.9871 46.8417 12.9074 43.5231 10.7475V10.7485ZM20.1314 43.4927C14.4725 31.5647 9.48944 19.3667 12.768 10.5585C9.2983 12.7483 6.9581 15.8677 6.7863 19.9072C6.42335 28.6556 14.1905 37.1333 20.1314 43.4922V43.4927Z" fill="white"/>
<path fill-rule="evenodd" clip-rule="evenodd" d="M36.0914 54.8824L35.3147 61.1317V66.3407C35.3147 68.3403 33.3683 70 30.9873 70H25.0865C22.7063 70 20.7592 68.3502 20.7592 66.3407V61.3417L19.9624 54.9129H23.2711L23.8159 59.2719H32.2381L32.7829 54.9129L36.0914 54.8824Z" fill="white"/>
</svg>
